HIERARCHY
ROOT hip
{
	OFFSET 0.000000 0.000000 0.000000
	CHANNELS 6 Xposition Yposition Zposition Xrotation Zrotation Yrotation 
	JOINT abdomen
	{
		OFFSET 0.000000 3.422050 0.000000
		CHANNELS 3 Xrotation Zrotation Yrotation 
		JOINT chest
		{
			OFFSET 0.000000 8.486693 -0.684411
			CHANNELS 3 Xrotation Zrotation Yrotation 
			JOINT neck
			{
				OFFSET 0.000000 10.266162 -0.273764
				CHANNELS 3 Xrotation Zrotation Yrotation 
				JOINT head
				{
					OFFSET 0.000000 3.148285 0.000000
					CHANNELS 3 Xrotation Zrotation Yrotation 
					End Site
					{
						OFFSET 0.000000 3.148289 0.000000
					}
				}
			}
			JOINT lCollar
			{
				OFFSET 3.422053 6.707223 -0.821293
				CHANNELS 3 Yrotation Zrotation Xrotation 
				JOINT lShldr
				{
					OFFSET 3.285171 0.000000 0.000000
					CHANNELS 3 Zrotation Yrotation Xrotation 
					JOINT lForeArm
					{
						OFFSET 10.129278 0.000000 0.000000
						CHANNELS 3 Yrotation Zrotation Xrotation 
						JOINT lHand
						{
							OFFSET 8.486692 0.000000 0.000000
							CHANNELS 3 Zrotation Yrotation Xrotation 
							End Site
							{
								OFFSET 4.106464 0.000000 0.000000
							}
						}
					}
				}
			}
			JOINT rCollar
			{
				OFFSET -3.558935 6.707223 -0.821293
				CHANNELS 3 Yrotation Zrotation Xrotation 
				JOINT rShldr
				{
					OFFSET -3.148289 0.000000 0.000000
					CHANNELS 3 Zrotation Yrotation Xrotation 
					JOINT rForeArm
					{
						OFFSET -10.266159 0.000000 0.000000
						CHANNELS 3 Yrotation Zrotation Xrotation 
						JOINT rHand
						{
							OFFSET -8.349810 0.000000 0.000000
							CHANNELS 3 Zrotation Yrotation Xrotation 
							End Site
							{
								OFFSET -4.106464 0.000000 0.000000
							}
						}
					}
				}
			}
		}
	}
	JOINT lThigh
	{
		OFFSET 5.338403 -1.642589 1.368821
		CHANNELS 3 Xrotation Zrotation Yrotation 
		JOINT lShin
		{
			OFFSET -2.053232 -20.121670 0.000000
			CHANNELS 3 Xrotation Zrotation Yrotation 
			JOINT lFoot
			{
				OFFSET 0.000000 -19.300380 -1.231939
				CHANNELS 3 Xrotation Yrotation Zrotation 
				End Site
				{
					OFFSET 0.000000 -2.463878 4.653993
				}
			}
		}
	}
	JOINT rThigh
	{
		OFFSET -5.338403 -1.642589 1.368821
		CHANNELS 3 Xrotation Zrotation Yrotation 
		JOINT rShin
		{
			OFFSET 2.053232 -20.121670 0.000000
			CHANNELS 3 Xrotation Zrotation Yrotation 
			JOINT rFoot
			{
				OFFSET 0.000000 -19.300380 -1.231939
				CHANNELS 3 Xrotation Yrotation Zrotation 
				End Site
				{
					OFFSET 0.000000 -2.463878 4.653993
				}
			}
		}
	}
}
MOTION
Frames: 12
Frame Time: 0.066631
0.000000 1.995800 0.000000 -63.002171 0.000000 0.000000 37.997963 0.000000 0.000000 19.998167 0.000000 0.000000 0.000000 0.000000 0.000000 10.453020 -0.688104 -14.292459 0.000000 0.000000 0.000000 -73.042587 0.006748 29.411747 0.000000 0.000000 0.000000 79.999802 0.000000 0.000000 0.000000 0.000000 0.000000 54.536621 37.287086 22.666834 33.201767 -3.291183 8.515945 -53.883850 4.077577 12.552535 -57.000584 10.998217 0.000603 71.996742 0.000001 -0.000001 14.998732 -0.002847 -0.999614 -57.002922 -11.001460 1.999472 71.996742 0.000001 -0.000001 20.996786 0.000000 0.000000 
0.000000 1.995800 0.000000 -63.002171 0.000000 0.000000 37.997963 0.000000 0.000000 19.998167 0.000000 0.000000 0.000000 0.000000 0.000000 10.122667 -0.705250 -13.834968 0.000000 0.000000 0.000000 -73.061798 0.011667 29.117657 0.000000 0.000000 0.000000 79.999802 0.000000 0.000000 0.000000 0.000000 0.000000 55.397110 35.940029 22.061821 32.121220 -3.257158 8.217065 -54.767681 4.036543 12.109972 -57.000584 10.998217 0.000603 71.996742 0.000001 -0.000001 14.998732 -0.002847 -0.999614 -57.002922 -11.001460 1.999472 71.996742 0.000001 -0.000001 20.996786 0.000000 0.000000 
0.000000 1.995800 0.000000 -63.002171 0.000000 0.000000 37.997963 0.000000 0.000000 19.998167 0.000000 0.000000 0.000000 0.000000 0.000000 9.792092 -0.719760 -13.377249 0.000000 0.000000 0.000000 -73.081039 0.016488 28.823385 0.000000 0.000000 0.000000 79.999802 0.000000 0.000000 0.000000 0.000000 0.000000 56.262100 34.598270 21.441238 31.042217 -3.217565 7.919252 -55.650299 3.988753 11.668522 -57.000584 10.998217 0.000603 71.996742 0.000001 -0.000001 14.998732 -0.002847 -0.999614 -57.002922 -11.001460 1.999472 71.996742 0.000001 -0.000001 20.996786 0.000000 0.000000 
0.000000 1.995800 0.000000 -63.002171 0.000000 0.000000 37.997963 0.000000 0.000000 19.998167 0.000000 0.000000 0.000000 0.000000 0.000000 9.461331 -0.731632 -12.919346 0.000000 0.000000 0.000000 -73.100327 0.021217 28.528921 0.000000 0.000000 0.000000 79.999802 0.000000 0.000000 0.000000 0.000000 0.000000 57.131855 33.262867 20.805468 29.964996 -3.172447 7.622667 -56.531555 3.934250 11.228359 -57.000584 10.998217 0.000603 71.996742 0.000001 -0.000001 14.998732 -0.002847 -0.999614 -57.002922 -11.001460 1.999472 71.996742 0.000001 -0.000001 20.996786 0.000000 0.000000 
0.000000 1.995800 0.000000 -63.002171 0.000000 0.000000 37.997963 0.000000 0.000000 19.998167 0.000000 0.000000 0.000000 0.000000 0.000000 9.130424 -0.740862 -12.461292 0.000000 0.000000 0.000000 -73.119652 0.025850 28.234276 0.000000 0.000000 0.000000 79.999802 0.000000 0.000000 0.000000 0.000000 0.000000 58.006672 31.934937 20.154909 28.889765 -3.121855 7.327461 -57.411236 3.873076 10.789637 -57.000584 10.998217 0.000603 71.996742 0.000001 -0.000001 14.998732 -0.002847 -0.999614 -57.002922 -11.001460 1.999472 71.996742 0.000001 -0.000001 20.996786 0.000000 0.000000 
0.000000 1.995800 0.000000 -63.002171 0.000000 0.000000 37.997963 0.000000 0.000000 19.998167 0.000000 0.000000 0.000000 0.000000 0.000000 8.799404 -0.747446 -12.003124 0.000000 0.000000 0.000000 -73.139000 0.030381 27.939457 0.000000 0.000000 0.000000 79.999802 0.000000 0.000000 0.000000 0.000000 0.000000 58.886772 30.615551 19.489939 27.816757 -3.065845 7.033792 -58.289185 3.805288 10.352524 -57.000584 10.998217 0.000603 71.996742 0.000001 -0.000001 14.998732 -0.002847 -0.999614 -57.002922 -11.001460 1.999472 71.996742 0.000001 -0.000001 20.996786 0.000000 0.000000 
0.000000 1.995800 0.000000 -63.002171 0.000000 0.000000 37.997963 0.000000 0.000000 19.998167 0.000000 0.000000 0.000000 0.000000 0.000000 8.468309 -0.751384 -11.544884 0.000000 0.000000 0.000000 -73.158394 0.034820 27.644459 0.000000 0.000000 0.000000 79.999802 0.000000 0.000000 0.000000 0.000000 0.000000 59.772312 29.305805 18.810923 26.746191 -3.004479 6.741806 -59.165230 3.730941 9.917183 -57.000584 10.998217 0.000603 71.996742 0.000001 -0.000001 14.998732 -0.002847 -0.999614 -57.002922 -11.001460 1.999472 71.996742 0.000001 -0.000001 20.996786 0.000000 0.000000 
0.000000 1.995800 0.000000 -63.002171 0.000000 0.000000 37.997963 0.000000 0.000000 19.998167 0.000000 0.000000 0.000000 0.000000 0.000000 8.137177 -0.752674 -11.086604 0.000000 0.000000 0.000000 -73.177826 0.039160 27.349293 0.000000 0.000000 0.000000 79.999802 0.000000 0.000000 0.000000 0.000000 0.000000 60.663445 28.006731 18.118219 25.678289 -2.937825 6.451653 -60.039200 3.650099 9.483765 -57.000584 10.998217 0.000603 71.996742 0.000001 -0.000001 14.998732 -0.002847 -0.999614 -57.002922 -11.001460 1.999472 71.996742 0.000001 -0.000001 20.996786 0.000000 0.000000 
0.000000 1.995800 0.000000 -63.002171 0.000000 0.000000 37.997963 0.000000 0.000000 19.998167 0.000000 0.000000 0.000000 0.000000 0.000000 7.806046 -0.751316 -10.628325 0.000000 0.000000 0.000000 -73.197281 0.043403 27.053961 0.000000 0.000000 0.000000 79.999802 0.000000 0.000000 0.000000 0.000000 0.000000 61.560265 26.719402 17.412195 24.613264 -2.865956 6.163476 -60.910938 3.562832 9.052427 -57.000584 10.998217 0.000603 71.996742 0.000001 -0.000001 14.998732 -0.002847 -0.999614 -57.002918 -11.001460 1.999472 71.996742 0.000001 -0.000001 20.996786 0.000000 0.000000 
0.000000 1.995800 0.000000 -63.002171 0.000000 0.000000 37.997963 0.000000 0.000000 19.998167 0.000000 0.000000 0.000000 0.000000 0.000000 7.474952 -0.747310 -10.170083 0.000000 0.000000 0.000000 -73.216782 0.047545 26.758463 0.000000 0.000000 0.000000 79.999802 0.000000 0.000000 0.000000 0.000000 0.000000 62.462852 25.444828 16.693207 23.551325 -2.788948 5.877415 -61.780258 3.469210 8.623318 -57.000584 10.998217 0.000603 71.996742 0.000001 -0.000001 14.998732 -0.002847 -0.999614 -57.002926 -11.001460 1.999473 71.996742 0.000001 -0.000001 20.996786 0.000000 0.000000 
0.000000 1.995800 0.000000 -63.002171 0.000000 0.000000 37.997963 0.000000 0.000000 19.998167 0.000000 0.000000 0.000000 0.000000 0.000000 7.143935 -0.740657 -9.711921 0.000000 0.000000 0.000000 -73.236290 0.051589 26.462803 0.000000 0.000000 0.000000 79.999802 0.000000 0.000000 0.000000 0.000000 0.000000 63.371239 24.184032 15.961628 22.492678 -2.706886 5.593606 -62.647015 3.369312 8.196585 -57.000584 10.998217 0.000603 71.996742 0.000001 -0.000001 14.998732 -0.002847 -0.999614 -57.002922 -11.001460 1.999472 71.996742 0.000001 -0.000001 20.996786 0.000000 0.000000 
0.000000 1.995800 0.000000 -63.002171 0.000000 0.000000 37.997963 0.000000 0.000000 19.998167 0.000000 0.000000 0.000000 0.000000 0.000000 6.813027 -0.731359 -9.253866 0.000000 0.000000 0.000000 -73.255844 0.055537 26.166994 0.000000 0.000000 0.000000 79.999802 0.000000 0.000000 0.000000 0.000000 0.000000 64.285416 22.937973 15.217819 21.437523 -2.619856 5.312181 -63.511055 3.263222 7.772377 -57.000584 10.998217 0.000603 71.996742 0.000001 -0.000001 14.998732 -0.002847 -0.999614 -57.002922 -11.001460 1.999472 71.996742 0.000001 -0.000001 20.996786 0.000000 0.000000 
